<svg xmlns="http://www.w3.org/2000/svg" xmlns:xlink="http://www.w3.org/1999/xlink" width="200" height="35" viewBox="0 0 200 35"><defs><style>.a{fill:none;}.b{fill:#6da425;stroke:#fff;opacity:0.74;}.c,.e{fill:#fff;}.c{font-size:12px;font-family:Raleway-Regular, Raleway;}.d{clip-path:url(#a);}.f{stroke:none;}</style><clipPath id="a"><rect class="a" width="13.121" height="6.919"/></clipPath></defs><g class="b"><rect class="f" width="200" height="35" rx="17.5"/><rect class="a" x="0.5" y="0.5" width="199" height="34" rx="17"/></g><text class="c" transform="translate(77.366 21.355)"><tspan x="0" y="0">View detail</tspan></text><g transform="translate(57.277 14.489)"><g class="d"><g transform="translate(0 0)"><path class="e" d="M13.023,124.2c-.117-.131-2.934-3.2-6.463-3.2S.215,124.073.1,124.2a.384.384,0,0,0,0,.513c.117.131,2.934,3.2,6.463,3.2s6.346-3.073,6.463-3.2A.385.385,0,0,0,13.023,124.2ZM6.56,127.151a2.691,2.691,0,1,1,2.691-2.691A2.694,2.694,0,0,1,6.56,127.151Z" transform="translate(0.001 -121)"/></g><g transform="translate(4.639 1.538)"><g transform="translate(0 0)"><path class="e" d="M183.306,182.153a1.15,1.15,0,0,1,.484-.936,1.9,1.9,0,0,0-.868-.217,1.922,1.922,0,1,0,1.889,2.246A1.147,1.147,0,0,1,183.306,182.153Z" transform="translate(-181 -181)"/></g></g></g></g></svg>